/* XPM */
static char *ProLogo[] = {
    /* width height ncolors cpp [x_hot y_hot] */
    "50 32 6 1 0 0",
    /* colors */
    "  c none",
    ". c Gray85",
    "* c Red4",
    "= c Blue4",
    "+ c Green4",
    "x c Black",
    /* pixels */
    "                                                  ",
    " xxxxx                                       xxxx ",
    ".......................................           ",
    ".                                     .           ",
    ".                                     .           ",
    ".    *  ************                  .           ",
    ".                                     .           ",
    ".    *  ******* ******* *****         .           ",
    ".                                     .           ",
    ".    =  ========= ======              .           ",
    ".                                     .           ",
    ".       ++++ ++++++                   .           ",
    ".                                     . ..........",
    ".    *  ********* ************        . .        .",
    ".                                     . . xxxxxx .",
    ".    =  =============                 . .        .",
    ".                                     . ..........",
    ".    =  === ==== ======               .           ",
    ".                                     . ..........",
    ".       +++++++ +++++++++++           . .        .",
    ".                                     . . xxxxx  .",
    ".    *  ** ********                   . .        .",
    ".                                     . ..........",
    ".    =  ================              .           ",
    ".                                     .           ",
    ".                                     .           ",
    ".                                     .           ",
    ".    ======== ===========             .           ",
    ".                                     .           ",
    ".......................................           ",
    "                                                  ",
    "                                                  " };
